<svg width="412" height="399" viewBox="0 0 412 399" fill="none" xmlns="http://www.w3.org/2000/svg">
<g opacity="0.5">
<path fill-rule="evenodd" clip-rule="evenodd" d="M338.525 212.409V248.462H335.602V212.409H338.525Z" fill="#BDBDBD"/>
<path fill-rule="evenodd" clip-rule="evenodd" d="M337.063 247.384C337.891 247.384 338.525 247.806 338.525 248.288C338.525 248.771 337.891 249.193 337.063 249.193C336.235 249.193 335.602 248.771 335.602 248.288C335.602 247.806 336.235 247.384 337.063 247.384Z" fill="#BDBDBD"/>
<path fill-rule="evenodd" clip-rule="evenodd" d="M331.217 212.897V240.667H328.293V212.897H331.217Z" fill="#BDBDBD"/>
<path fill-rule="evenodd" clip-rule="evenodd" d="M329.755 239.693C330.583 239.693 331.217 240.115 331.217 240.598C331.217 241.08 330.583 241.502 329.755 241.502C328.927 241.502 328.293 241.08 328.293 240.598C328.293 240.115 328.927 239.693 329.755 239.693Z" fill="#BDBDBD"/>
<path fill-rule="evenodd" clip-rule="evenodd" d="M329.755 212.409C330.583 212.409 331.217 212.637 331.217 212.896C331.217 213.156 330.583 213.384 329.755 213.384C328.927 213.384 328.293 213.156 328.293 212.896C328.293 212.637 328.927 212.409 329.755 212.409Z" fill="#06AFFF"/>
<path fill-rule="evenodd" clip-rule="evenodd" d="M345.833 204.127V220.692H342.91V204.127H345.833Z" fill="#BDBDBD"/>
<path fill-rule="evenodd" clip-rule="evenodd" d="M344.371 219.717C345.199 219.717 345.833 220.139 345.833 220.622C345.833 221.104 345.199 221.527 344.371 221.527C343.543 221.527 342.91 221.104 342.91 220.622C342.91 220.139 343.543 219.717 344.371 219.717Z" fill="#BDBDBD"/>
<path fill-rule="evenodd" clip-rule="evenodd" d="M251.402 176.265L251.402 167.855C251.402 167.855 331.447 131.924 332.045 132.265L411.707 168.664V176.449C411.707 176.449 411.707 177.226 410.93 177.614L332.686 222.737C332.088 223.079 331.148 223.079 330.55 222.737L251.872 177.418C251.274 177.076 251.402 176.265 251.402 176.265Z" fill="#DBDDDE"/>
<path fill-rule="evenodd" clip-rule="evenodd" d="M251.779 167.305L330.632 122.533C331.23 122.191 332.17 122.191 332.768 122.533L411.308 168.081C411.906 168.423 411.906 168.978 411.308 169.32L333.451 214.067C332.853 214.409 331.914 214.409 331.316 214.067L251.822 168.543C251.224 168.202 251.181 167.646 251.779 167.305Z" fill="#F3F3F3"/>
<path fill-rule="evenodd" clip-rule="evenodd" d="M299.238 167.033L330.917 148.693C331.154 148.55 331.531 148.55 331.814 148.693L363.682 167.176C363.918 167.319 363.918 167.557 363.682 167.7L332.051 185.993C331.814 186.136 331.437 186.136 331.154 185.993L299.238 167.51C299.002 167.367 299.002 167.176 299.238 167.033Z" fill="#DBDDDE"/>
<path fill-rule="evenodd" clip-rule="evenodd" d="M305.067 170.437C305.067 170.437 330.517 155.755 330.729 155.65C330.942 155.544 331.313 155.544 331.525 155.65C331.737 155.755 358.013 170.509 358.013 170.509C358.225 170.615 358.225 170.826 358.013 170.984L331.947 186.1C331.735 186.205 331.275 186.205 331.062 186.1L305.067 170.911C304.855 170.753 304.855 170.542 305.067 170.437Z" fill="#F9F9FE"/>
<path fill-rule="evenodd" clip-rule="evenodd" d="M323.909 232.385V253.861H320.986V232.385H323.909Z" fill="#BDBDBD"/>
<path fill-rule="evenodd" clip-rule="evenodd" d="M322.447 253.414C323.275 253.414 323.909 253.623 323.909 253.861C323.909 254.1 323.275 254.309 322.447 254.309C321.619 254.309 320.986 254.1 320.986 253.861C320.986 253.623 321.619 253.414 322.447 253.414Z" fill="#F32626"/>
<path fill-rule="evenodd" clip-rule="evenodd" d="M322.447 231.897C323.275 231.897 323.909 232.125 323.909 232.385C323.909 232.644 323.275 232.872 322.447 232.872C321.619 232.872 320.986 232.644 320.986 232.385C320.986 232.125 321.619 231.897 322.447 231.897Z" fill="#F3F3F3"/>
<path fill-rule="evenodd" clip-rule="evenodd" d="M338.561 92.3137V165.15H335.637V92.3137H338.561Z" fill="#BDBDBD"/>
<path fill-rule="evenodd" clip-rule="evenodd" d="M337.063 164.315C337.891 164.315 338.525 164.738 338.525 165.22C338.525 165.703 337.891 166.125 337.063 166.125C336.235 166.125 335.602 165.703 335.602 165.22C335.602 164.738 336.235 164.315 337.063 164.315Z" fill="#BDBDBD"/>
<path fill-rule="evenodd" clip-rule="evenodd" d="M345.869 149.073V155.233H342.946V149.073H345.869Z" fill="#BDBDBD"/>
<path fill-rule="evenodd" clip-rule="evenodd" d="M344.407 154.432C345.235 154.432 345.869 154.855 345.869 155.337C345.869 155.82 345.235 156.242 344.407 156.242C343.579 156.242 342.946 155.82 342.946 155.337C342.946 154.855 343.579 154.432 344.407 154.432Z" fill="#BDBDBD"/>
<path fill-rule="evenodd" clip-rule="evenodd" d="M344.407 138.243C345.235 138.243 345.869 138.666 345.869 139.148C345.869 139.631 345.235 140.053 344.407 140.053C343.579 140.053 342.945 139.631 342.945 139.148C342.945 138.666 343.579 138.243 344.407 138.243Z" fill="#BDBDBD"/>
<path fill-rule="evenodd" clip-rule="evenodd" d="M344.407 148.586C345.235 148.586 345.869 148.813 345.869 149.073C345.869 149.333 345.235 149.56 344.407 149.56C343.579 149.56 342.945 149.333 342.945 149.073C342.945 148.813 343.579 148.586 344.407 148.586Z" fill="#F3F3F3"/>
<path fill-rule="evenodd" clip-rule="evenodd" d="M323.945 63.3254V69.485H321.021V63.3254H323.945Z" fill="#BDBDBD"/>
<path fill-rule="evenodd" clip-rule="evenodd" d="M322.483 68.6842C323.311 68.6842 323.945 69.1065 323.945 69.5891C323.945 70.0716 323.311 70.4939 322.483 70.4939C321.655 70.4939 321.021 70.0716 321.021 69.5891C321.021 69.1065 321.655 68.6842 322.483 68.6842Z" fill="#BDBDBD"/>
<path fill-rule="evenodd" clip-rule="evenodd" d="M322.483 62.838C323.311 62.838 323.945 63.0654 323.945 63.3252C323.945 63.5851 323.311 63.8124 322.483 63.8124C321.655 63.8124 321.021 63.5851 321.021 63.3252C321.021 63.0654 321.655 62.838 322.483 62.838Z" fill="#F3F3F3"/>
<path fill-rule="evenodd" clip-rule="evenodd" d="M323.945 220.205V226.364H321.021V220.205H323.945Z" fill="#BDBDBD"/>
<path fill-rule="evenodd" clip-rule="evenodd" d="M322.483 225.564C323.311 225.564 323.945 225.986 323.945 226.469C323.945 226.951 323.311 227.373 322.483 227.373C321.655 227.373 321.021 226.951 321.021 226.469C321.021 225.986 321.655 225.564 322.483 225.564Z" fill="#BDBDBD"/>
<path fill-rule="evenodd" clip-rule="evenodd" d="M345.869 117.892V139.369H342.945V117.892H345.869Z" fill="#BDBDBD"/>
<path fill-rule="evenodd" clip-rule="evenodd" d="M344.407 117.405C345.235 117.405 345.869 117.632 345.869 117.892C345.869 118.152 345.235 118.379 344.407 118.379C343.579 118.379 342.945 118.152 342.945 117.892C342.945 117.632 343.579 117.405 344.407 117.405Z" fill="#F3F3F3"/>
<path fill-rule="evenodd" clip-rule="evenodd" d="M322.483 219.717C323.311 219.717 323.945 219.945 323.945 220.204C323.945 220.464 323.311 220.692 322.483 220.692C321.655 220.692 321.021 220.464 321.021 220.204C321.021 219.945 321.655 219.717 322.483 219.717Z" fill="#F3F3F3"/>
<path fill-rule="evenodd" clip-rule="evenodd" d="M345.869 227.513V233.672H342.945V227.513H345.869Z" fill="#BDBDBD"/>
<path fill-rule="evenodd" clip-rule="evenodd" d="M344.407 232.872C345.235 232.872 345.869 233.294 345.869 233.776C345.869 234.259 345.235 234.681 344.407 234.681C343.579 234.681 342.945 234.259 342.945 233.776C342.945 233.294 343.579 232.872 344.407 232.872Z" fill="#BDBDBD"/>
<path fill-rule="evenodd" clip-rule="evenodd" d="M344.407 227.026C345.235 227.026 345.869 227.253 345.869 227.513C345.869 227.773 345.235 228 344.407 228C343.579 228 342.945 227.773 342.945 227.513C342.945 227.253 343.579 227.026 344.407 227.026Z" fill="#F3F3F3"/>
<path fill-rule="evenodd" clip-rule="evenodd" d="M345.869 82.8136V88.9732H342.945V82.8136H345.869Z" fill="#BDBDBD"/>
<path fill-rule="evenodd" clip-rule="evenodd" d="M344.407 88.1729C345.235 88.1729 345.869 88.5951 345.869 89.0777C345.869 89.5603 345.235 89.9825 344.407 89.9825C343.579 89.9825 342.945 89.5603 342.945 89.0777C342.945 88.5951 343.579 88.1729 344.407 88.1729Z" fill="#BDBDBD"/>
<path fill-rule="evenodd" clip-rule="evenodd" d="M344.407 82.3263C345.235 82.3263 345.869 82.5536 345.869 82.8135C345.869 83.0733 345.235 83.3007 344.407 83.3007C343.579 83.3007 342.945 83.0733 342.945 82.8135C342.945 82.5536 343.579 82.3263 344.407 82.3263Z" fill="#F3F3F3"/>
<path fill-rule="evenodd" clip-rule="evenodd" d="M345.869 240.18V251.212C344.727 251.212 344.087 251.212 342.945 251.212V240.18H345.869Z" fill="#BDBDBD"/>
<path fill-rule="evenodd" clip-rule="evenodd" d="M344.407 250.411C345.235 250.411 345.869 250.834 345.869 251.316C345.869 251.799 345.235 252.221 344.407 252.221C343.579 252.221 342.945 251.799 342.945 251.316C342.945 250.834 343.579 250.411 344.407 250.411Z" fill="#BDBDBD"/>
<path fill-rule="evenodd" clip-rule="evenodd" d="M344.407 239.693C345.235 239.693 345.869 239.92 345.869 240.18C345.869 240.44 345.235 240.667 344.407 240.667C343.579 240.667 342.945 240.44 342.945 240.18C342.945 239.92 343.579 239.693 344.407 239.693Z" fill="#F3F3F3"/>
<path fill-rule="evenodd" clip-rule="evenodd" d="M338.561 76.4799V80.2035C337.419 80.2035 336.779 80.2035 335.637 80.2035V76.4799H338.561Z" fill="#BDBDBD"/>
<path fill-rule="evenodd" clip-rule="evenodd" d="M337.099 79.4031C337.927 79.4031 338.561 79.8253 338.561 80.3079C338.561 80.7905 337.927 81.2127 337.099 81.2127C336.271 81.2127 335.637 80.7905 335.637 80.3079C335.637 79.8253 336.271 79.4031 337.099 79.4031Z" fill="#BDBDBD"/>
<path fill-rule="evenodd" clip-rule="evenodd" d="M337.099 75.9926C337.927 75.9926 338.561 76.2199 338.561 76.4798C338.561 76.7396 337.927 76.967 337.099 76.967C336.271 76.967 335.637 76.7396 335.637 76.4798C335.637 76.2199 336.271 75.9926 337.099 75.9926Z" fill="#F3F3F3"/>
<path fill-rule="evenodd" clip-rule="evenodd" d="M338.561 171.484V177.644H335.637V171.484H338.561Z" fill="#BDBDBD"/>
<path fill-rule="evenodd" clip-rule="evenodd" d="M337.099 176.843C337.927 176.843 338.561 177.266 338.561 177.748C338.561 178.231 337.927 178.653 337.099 178.653C336.271 178.653 335.637 178.231 335.637 177.748C335.637 177.266 336.271 176.843 337.099 176.843Z" fill="#BDBDBD"/>
<path fill-rule="evenodd" clip-rule="evenodd" d="M337.099 170.997C337.927 170.997 338.561 171.224 338.561 171.484C338.561 171.744 337.927 171.971 337.099 171.971C336.271 171.971 335.637 171.744 335.637 171.484C335.637 171.224 336.271 170.997 337.099 170.997Z" fill="#F3F3F3"/>
<path fill-rule="evenodd" clip-rule="evenodd" d="M337.099 91.8264C337.927 91.8264 338.561 92.0538 338.561 92.3136C338.561 92.5734 337.927 92.8008 337.099 92.8008C336.271 92.8008 335.637 92.5734 335.637 92.3136C335.637 92.0538 336.271 91.8264 337.099 91.8264Z" fill="#F3F3F3"/>
<path fill-rule="evenodd" clip-rule="evenodd" d="M331.217 67.2228V125.687H328.294V67.2228H331.217Z" fill="#BDBDBD"/>
<path fill-rule="evenodd" clip-rule="evenodd" d="M329.755 124.852C330.583 124.852 331.217 125.274 331.217 125.757C331.217 126.239 330.583 126.661 329.755 126.661C328.927 126.661 328.294 126.239 328.294 125.757C328.294 125.274 328.927 124.852 329.755 124.852Z" fill="#BDBDBD"/>
<path fill-rule="evenodd" clip-rule="evenodd" d="M329.755 66.7356C330.583 66.7356 331.217 66.963 331.217 67.2228C331.217 67.4826 330.583 67.71 329.755 67.71C328.927 67.71 328.294 67.4826 328.294 67.2228C328.294 66.963 328.927 66.7356 329.755 66.7356Z" fill="#F3F3F3"/>
<path fill-rule="evenodd" clip-rule="evenodd" d="M323.909 148.099V175.869H320.986V148.099H323.909Z" fill="#BDBDBD"/>
<path fill-rule="evenodd" clip-rule="evenodd" d="M322.447 174.895C323.275 174.895 323.909 175.317 323.909 175.799C323.909 176.282 323.275 176.704 322.447 176.704C321.619 176.704 320.986 176.282 320.986 175.799C320.986 175.317 321.619 174.895 322.447 174.895Z" fill="#BDBDBD"/>
<path fill-rule="evenodd" clip-rule="evenodd" d="M322.447 147.611C323.275 147.611 323.909 147.839 323.909 148.099C323.909 148.358 323.275 148.586 322.447 148.586C321.619 148.586 320.986 148.358 320.986 148.099C320.986 147.839 321.619 147.611 322.447 147.611Z" fill="#F3F3F3"/>
<path fill-rule="evenodd" clip-rule="evenodd" d="M331.217 136.405V152.97H328.294V136.405H331.217Z" fill="#BDBDBD"/>
<path fill-rule="evenodd" clip-rule="evenodd" d="M329.755 151.996C330.583 151.996 331.217 152.418 331.217 152.901C331.217 153.383 330.583 153.805 329.755 153.805C328.927 153.805 328.294 153.383 328.294 152.901C328.294 152.418 328.927 151.996 329.755 151.996Z" fill="#BDBDBD"/>
<path fill-rule="evenodd" clip-rule="evenodd" d="M329.755 135.918C330.584 135.918 331.217 136.146 331.217 136.406C331.217 136.665 330.584 136.893 329.755 136.893C328.927 136.893 328.294 136.665 328.294 136.406C328.294 136.146 328.927 135.918 329.755 135.918Z" fill="#F3F3F3"/>
<path fill-rule="evenodd" clip-rule="evenodd" d="M345.833 97.9168V111.071H342.91V97.9168H345.833Z" fill="#BDBDBD"/>
<path fill-rule="evenodd" clip-rule="evenodd" d="M344.371 110.097C345.199 110.097 345.833 110.519 345.833 111.002C345.833 111.485 345.199 111.907 344.371 111.907C343.543 111.907 342.91 111.485 342.91 111.002C342.91 110.519 343.543 110.097 344.371 110.097Z" fill="#BDBDBD"/>
<path fill-rule="evenodd" clip-rule="evenodd" d="M344.371 97.4295C345.199 97.4295 345.833 97.6568 345.833 97.9167C345.833 98.1765 345.199 98.4039 344.371 98.4039C343.543 98.4039 342.91 98.1765 342.91 97.9167C342.91 97.6568 343.543 97.4295 344.371 97.4295Z" fill="#F3F3F3"/>
<path fill-rule="evenodd" clip-rule="evenodd" d="M345.833 162.715V178.062L342.91 179.767V162.715H345.833Z" fill="#BDBDBD"/>
<path fill-rule="evenodd" clip-rule="evenodd" d="M344.371 162.227C345.199 162.227 345.833 162.455 345.833 162.715C345.833 162.974 345.199 163.202 344.371 163.202C343.543 163.202 342.91 162.974 342.91 162.715C342.91 162.455 343.543 162.227 344.371 162.227Z" fill="#F3F3F3"/>
<path fill-rule="evenodd" clip-rule="evenodd" d="M331.217 167.1V186.168L328.293 184.461V167.1H331.217Z" fill="#BDBDBD"/>
<path fill-rule="evenodd" clip-rule="evenodd" d="M329.755 166.612C330.583 166.612 331.217 166.839 331.217 167.099C331.217 167.359 330.583 167.587 329.755 167.587C328.927 167.587 328.294 167.359 328.294 167.099C328.294 166.839 328.927 166.612 329.755 166.612Z" fill="#F3F3F3"/>
<path fill-rule="evenodd" clip-rule="evenodd" d="M323.909 82.3259V131.533H320.986V82.3259H323.909Z" fill="#BDBDBD"/>
<path fill-rule="evenodd" clip-rule="evenodd" d="M322.447 131.126C323.275 131.126 323.909 131.335 323.909 131.573C323.909 131.812 323.275 132.021 322.447 132.021C321.619 132.021 320.986 131.812 320.986 131.573C320.986 131.335 321.619 131.126 322.447 131.126Z" fill="#BDBDBD"/>
<path fill-rule="evenodd" clip-rule="evenodd" d="M322.447 81.8387C323.275 81.8387 323.909 82.066 323.909 82.3259C323.909 82.5857 323.275 82.8131 322.447 82.8131C321.619 82.8131 320.986 82.5857 320.986 82.3259C320.986 82.066 321.619 81.8387 322.447 81.8387Z" fill="#F3F3F3"/>
</g>
<g opacity="0.5">
<path fill-rule="evenodd" clip-rule="evenodd" d="M87.1735 224.977V261.03H84.2503V224.977H87.1735Z" fill="#BDBDBD"/>
<path fill-rule="evenodd" clip-rule="evenodd" d="M85.7119 259.951C86.5401 259.951 87.1735 260.373 87.1735 260.856C87.1735 261.338 86.5401 261.76 85.7119 261.76C84.8836 261.76 84.2503 261.338 84.2503 260.856C84.2503 260.373 84.8836 259.951 85.7119 259.951Z" fill="#BDBDBD"/>
<path fill-rule="evenodd" clip-rule="evenodd" d="M79.8653 225.464V253.235H76.942V225.464H79.8653Z" fill="#BDBDBD"/>
<path fill-rule="evenodd" clip-rule="evenodd" d="M78.4037 252.26C79.2319 252.26 79.8653 252.682 79.8653 253.165C79.8653 253.648 79.2319 254.07 78.4037 254.07C77.5754 254.07 76.942 253.648 76.942 253.165C76.942 252.682 77.5754 252.26 78.4037 252.26Z" fill="#BDBDBD"/>
<path fill-rule="evenodd" clip-rule="evenodd" d="M78.4037 224.977C79.232 224.977 79.8653 225.204 79.8653 225.464C79.8653 225.724 79.232 225.951 78.4037 225.951C77.5755 225.951 76.9421 225.724 76.9421 225.464C76.9421 225.204 77.5755 224.977 78.4037 224.977Z" fill="#06AFFF"/>
<path fill-rule="evenodd" clip-rule="evenodd" d="M94.4815 216.694V233.259H91.5583V216.694H94.4815Z" fill="#BDBDBD"/>
<path fill-rule="evenodd" clip-rule="evenodd" d="M93.0199 232.285C93.8481 232.285 94.4815 232.707 94.4815 233.189C94.4815 233.672 93.8481 234.094 93.0199 234.094C92.1916 234.094 91.5583 233.672 91.5583 233.189C91.5583 232.707 92.1916 232.285 93.0199 232.285Z" fill="#BDBDBD"/>
<path fill-rule="evenodd" clip-rule="evenodd" d="M0.0511444 188.833L0.0511444 180.422C0.0511444 180.422 80.096 144.491 80.6939 144.833L160.355 181.231V189.017C160.355 189.017 160.356 189.793 159.579 190.182L81.3346 235.305C80.7367 235.646 79.797 235.646 79.199 235.305L0.520991 189.986C-0.0769956 189.644 0.0511444 188.833 0.0511444 188.833Z" fill="#DBDDDE"/>
<path fill-rule="evenodd" clip-rule="evenodd" d="M0.427693 179.872L79.2808 135.1C79.8788 134.759 80.8185 134.759 81.4165 135.1L159.957 180.649C160.555 180.99 160.555 181.546 159.957 181.887L82.0999 226.635C81.5019 226.977 80.5622 226.977 79.9642 226.635L0.470406 181.111C-0.127581 180.769 -0.170294 180.214 0.427693 179.872Z" fill="#F3F3F3"/>
<path fill-rule="evenodd" clip-rule="evenodd" d="M47.8871 179.601L79.5661 161.26C79.8021 161.117 80.1798 161.117 80.4631 161.26L112.331 179.744C112.567 179.886 112.567 180.125 112.331 180.268L80.6991 198.56C80.4631 198.703 80.0854 198.703 79.8021 198.56L47.8871 180.077C47.651 179.934 47.651 179.744 47.8871 179.601Z" fill="#DBDDDE"/>
<path fill-rule="evenodd" clip-rule="evenodd" d="M53.7156 183.004C53.7156 183.004 79.166 168.323 79.3782 168.217C79.5904 168.112 79.9617 168.112 80.1739 168.217C80.3862 168.323 106.662 183.077 106.662 183.077C106.874 183.182 106.874 183.393 106.662 183.551L80.5962 198.668C80.384 198.773 79.9233 198.773 79.7111 198.668L53.7156 183.479C53.5034 183.321 53.5034 183.11 53.7156 183.004Z" fill="#F9F9FE"/>
<path fill-rule="evenodd" clip-rule="evenodd" d="M72.5573 244.952V266.429H69.6341V244.952H72.5573Z" fill="#BDBDBD"/>
<path fill-rule="evenodd" clip-rule="evenodd" d="M71.0957 265.981C71.924 265.981 72.5573 266.19 72.5573 266.429C72.5573 266.667 71.924 266.876 71.0957 266.876C70.2675 266.876 69.6341 266.667 69.6341 266.429C69.6341 266.19 70.2675 265.981 71.0957 265.981Z" fill="#BDBDBD"/>
<path fill-rule="evenodd" clip-rule="evenodd" d="M71.0957 244.465C71.9239 244.465 72.5573 244.692 72.5573 244.952C72.5573 245.212 71.9239 245.439 71.0957 245.439C70.2674 245.439 69.6341 245.212 69.6341 244.952C69.6341 244.692 70.2674 244.465 71.0957 244.465Z" fill="#F3F3F3"/>
<path fill-rule="evenodd" clip-rule="evenodd" d="M87.2093 104.881V177.718H84.2861V104.881H87.2093Z" fill="#BDBDBD"/>
<path fill-rule="evenodd" clip-rule="evenodd" d="M85.7119 176.883C86.5401 176.883 87.1735 177.305 87.1735 177.788C87.1735 178.27 86.5401 178.692 85.7119 178.692C84.8836 178.692 84.2503 178.27 84.2503 177.788C84.2503 177.305 84.8836 176.883 85.7119 176.883Z" fill="#BDBDBD"/>
<path fill-rule="evenodd" clip-rule="evenodd" d="M94.5173 161.64V167.8H91.5941V161.64H94.5173Z" fill="#BDBDBD"/>
<path fill-rule="evenodd" clip-rule="evenodd" d="M93.0557 167C93.8839 167 94.5173 167.422 94.5173 167.905C94.5173 168.387 93.8839 168.809 93.0557 168.809C92.2274 168.809 91.5941 168.387 91.5941 167.905C91.5941 167.422 92.2274 167 93.0557 167Z" fill="#BDBDBD"/>
<path fill-rule="evenodd" clip-rule="evenodd" d="M93.0558 150.811C93.884 150.811 94.5174 151.233 94.5174 151.716C94.5174 152.198 93.884 152.621 93.0558 152.621C92.2275 152.621 91.5941 152.198 91.5941 151.716C91.5941 151.233 92.2275 150.811 93.0558 150.811Z" fill="#BDBDBD"/>
<path fill-rule="evenodd" clip-rule="evenodd" d="M93.0558 161.153C93.884 161.153 94.5174 161.38 94.5174 161.64C94.5174 161.9 93.884 162.127 93.0558 162.127C92.2275 162.127 91.5941 161.9 91.5941 161.64C91.5941 161.38 92.2275 161.153 93.0558 161.153Z" fill="#F3F3F3"/>
<path fill-rule="evenodd" clip-rule="evenodd" d="M72.5932 75.8927V82.0524H69.67V75.8927H72.5932Z" fill="#BDBDBD"/>
<path fill-rule="evenodd" clip-rule="evenodd" d="M71.1316 81.2518C71.9598 81.2518 72.5932 81.674 72.5932 82.1566C72.5932 82.6392 71.9598 83.0614 71.1316 83.0614C70.3033 83.0614 69.67 82.6392 69.67 82.1566C69.67 81.674 70.3033 81.2518 71.1316 81.2518Z" fill="#BDBDBD"/>
<path fill-rule="evenodd" clip-rule="evenodd" d="M71.1316 75.4054C71.9598 75.4054 72.5932 75.6327 72.5932 75.8926C72.5932 76.1524 71.9598 76.3798 71.1316 76.3798C70.3033 76.3798 69.67 76.1524 69.67 75.8926C69.67 75.6327 70.3033 75.4054 71.1316 75.4054Z" fill="#F3F3F3"/>
<path fill-rule="evenodd" clip-rule="evenodd" d="M72.5932 232.772V238.932H69.67V232.772H72.5932Z" fill="#BDBDBD"/>
<path fill-rule="evenodd" clip-rule="evenodd" d="M71.1316 238.131C71.9598 238.131 72.5932 238.554 72.5932 239.036C72.5932 239.519 71.9598 239.941 71.1316 239.941C70.3033 239.941 69.67 239.519 69.67 239.036C69.67 238.554 70.3033 238.131 71.1316 238.131Z" fill="#BDBDBD"/>
<path fill-rule="evenodd" clip-rule="evenodd" d="M94.5174 130.459V151.936H91.5941V130.459H94.5174Z" fill="#BDBDBD"/>
<path fill-rule="evenodd" clip-rule="evenodd" d="M93.0558 129.972C93.884 129.972 94.5174 130.2 94.5174 130.459C94.5174 130.719 93.884 130.947 93.0558 130.947C92.2275 130.947 91.5941 130.719 91.5941 130.459C91.5941 130.2 92.2275 129.972 93.0558 129.972Z" fill="#F3F3F3"/>
<path fill-rule="evenodd" clip-rule="evenodd" d="M71.1316 232.285C71.9598 232.285 72.5932 232.512 72.5932 232.772C72.5932 233.032 71.9598 233.259 71.1316 233.259C70.3033 233.259 69.67 233.032 69.67 232.772C69.67 232.512 70.3033 232.285 71.1316 232.285Z" fill="#F3F3F3"/>
<path fill-rule="evenodd" clip-rule="evenodd" d="M94.5174 240.08V246.24H91.5941V240.08H94.5174Z" fill="#BDBDBD"/>
<path fill-rule="evenodd" clip-rule="evenodd" d="M93.0558 245.439C93.884 245.439 94.5174 245.862 94.5174 246.344C94.5174 246.827 93.884 247.249 93.0558 247.249C92.2275 247.249 91.5941 246.827 91.5941 246.344C91.5941 245.862 92.2275 245.439 93.0558 245.439Z" fill="#BDBDBD"/>
<path fill-rule="evenodd" clip-rule="evenodd" d="M93.0558 239.593C93.884 239.593 94.5174 239.82 94.5174 240.08C94.5174 240.34 93.884 240.567 93.0558 240.567C92.2275 240.567 91.5941 240.34 91.5941 240.08C91.5941 239.82 92.2275 239.593 93.0558 239.593Z" fill="#F3F3F3"/>
<path fill-rule="evenodd" clip-rule="evenodd" d="M94.5174 95.3809V101.541H91.5941V95.3809H94.5174Z" fill="#BDBDBD"/>
<path fill-rule="evenodd" clip-rule="evenodd" d="M93.0558 100.74C93.884 100.74 94.5174 101.162 94.5174 101.645C94.5174 102.128 93.884 102.55 93.0558 102.55C92.2275 102.55 91.5941 102.128 91.5941 101.645C91.5941 101.162 92.2275 100.74 93.0558 100.74Z" fill="#BDBDBD"/>
<path fill-rule="evenodd" clip-rule="evenodd" d="M93.0558 94.8936C93.884 94.8936 94.5174 95.121 94.5174 95.3808C94.5174 95.6407 93.884 95.868 93.0558 95.868C92.2275 95.868 91.5941 95.6407 91.5941 95.3808C91.5941 95.121 92.2275 94.8936 93.0558 94.8936Z" fill="#F3F3F3"/>
<path fill-rule="evenodd" clip-rule="evenodd" d="M94.5174 252.748V263.779C93.3758 263.779 92.7357 263.779 91.5941 263.779V252.748H94.5174Z" fill="#BDBDBD"/>
<path fill-rule="evenodd" clip-rule="evenodd" d="M93.0558 262.979C93.884 262.979 94.5174 263.401 94.5174 263.884C94.5174 264.366 93.884 264.788 93.0558 264.788C92.2275 264.788 91.5941 264.366 91.5941 263.884C91.5941 263.401 92.2275 262.979 93.0558 262.979Z" fill="#BDBDBD"/>
<path fill-rule="evenodd" clip-rule="evenodd" d="M93.0558 252.26C93.884 252.26 94.5174 252.487 94.5174 252.747C94.5174 253.007 93.884 253.234 93.0558 253.234C92.2275 253.234 91.5941 253.007 91.5941 252.747C91.5941 252.487 92.2275 252.26 93.0558 252.26Z" fill="#F3F3F3"/>
<path fill-rule="evenodd" clip-rule="evenodd" d="M87.2093 89.0475V92.7711C86.0677 92.7711 85.4276 92.7711 84.286 92.7711V89.0475H87.2093Z" fill="#BDBDBD"/>
<path fill-rule="evenodd" clip-rule="evenodd" d="M85.7476 91.9704C86.5759 91.9704 87.2093 92.3927 87.2093 92.8752C87.2093 93.3578 86.5759 93.7801 85.7476 93.7801C84.9194 93.7801 84.286 93.3578 84.286 92.8752C84.286 92.3927 84.9194 91.9704 85.7476 91.9704Z" fill="#BDBDBD"/>
<path fill-rule="evenodd" clip-rule="evenodd" d="M85.7476 88.5602C86.5759 88.5602 87.2093 88.7875 87.2093 89.0474C87.2093 89.3072 86.5759 89.5346 85.7476 89.5346C84.9194 89.5346 84.286 89.3072 84.286 89.0474C84.286 88.7875 84.9194 88.5602 85.7476 88.5602Z" fill="#F3F3F3"/>
<path fill-rule="evenodd" clip-rule="evenodd" d="M87.2093 184.052V190.211H84.286V184.052H87.2093Z" fill="#BDBDBD"/>
<path fill-rule="evenodd" clip-rule="evenodd" d="M85.7476 189.411C86.5759 189.411 87.2093 189.833 87.2093 190.316C87.2093 190.798 86.5759 191.221 85.7476 191.221C84.9194 191.221 84.286 190.798 84.286 190.316C84.286 189.833 84.9194 189.411 85.7476 189.411Z" fill="#BDBDBD"/>
<path fill-rule="evenodd" clip-rule="evenodd" d="M85.7476 183.564C86.5759 183.564 87.2093 183.792 87.2093 184.052C87.2093 184.312 86.5759 184.539 85.7476 184.539C84.9194 184.539 84.286 184.312 84.286 184.052C84.286 183.792 84.9194 183.564 85.7476 183.564Z" fill="#F3F3F3"/>
<path fill-rule="evenodd" clip-rule="evenodd" d="M85.7476 104.394C86.5759 104.394 87.2093 104.621 87.2093 104.881C87.2093 105.141 86.5759 105.368 85.7476 105.368C84.9194 105.368 84.286 105.141 84.286 104.881C84.286 104.621 84.9194 104.394 85.7476 104.394Z" fill="#F3F3F3"/>
<path fill-rule="evenodd" clip-rule="evenodd" d="M79.8653 79.7906V138.255H76.9421V79.7906H79.8653Z" fill="#BDBDBD"/>
<path fill-rule="evenodd" clip-rule="evenodd" d="M78.4037 137.42C79.2319 137.42 79.8653 137.842 79.8653 138.324C79.8653 138.807 79.2319 139.229 78.4037 139.229C77.5754 139.229 76.942 138.807 76.942 138.324C76.942 137.842 77.5754 137.42 78.4037 137.42Z" fill="#BDBDBD"/>
<path fill-rule="evenodd" clip-rule="evenodd" d="M78.4038 79.3032C79.232 79.3032 79.8654 79.5306 79.8654 79.7904C79.8654 80.0502 79.232 80.2776 78.4038 80.2776C77.5755 80.2776 76.9422 80.0502 76.9422 79.7904C76.9422 79.5306 77.5755 79.3032 78.4038 79.3032Z" fill="#F3F3F3"/>
<path fill-rule="evenodd" clip-rule="evenodd" d="M72.5573 160.666V188.437H69.6341V160.666H72.5573Z" fill="#BDBDBD"/>
<path fill-rule="evenodd" clip-rule="evenodd" d="M71.0958 187.462C71.924 187.462 72.5574 187.884 72.5574 188.367C72.5574 188.85 71.924 189.272 71.0958 189.272C70.2675 189.272 69.6342 188.85 69.6342 188.367C69.6342 187.884 70.2675 187.462 71.0958 187.462Z" fill="#BDBDBD"/>
<path fill-rule="evenodd" clip-rule="evenodd" d="M71.0957 160.179C71.924 160.179 72.5573 160.406 72.5573 160.666C72.5573 160.926 71.924 161.153 71.0957 161.153C70.2675 161.153 69.6341 160.926 69.6341 160.666C69.6341 160.406 70.2675 160.179 71.0957 160.179Z" fill="#F3F3F3"/>
<path fill-rule="evenodd" clip-rule="evenodd" d="M79.8653 148.973V165.538H76.9421V148.973H79.8653Z" fill="#BDBDBD"/>
<path fill-rule="evenodd" clip-rule="evenodd" d="M78.4037 164.564C79.2319 164.564 79.8653 164.986 79.8653 165.468C79.8653 165.951 79.2319 166.373 78.4037 166.373C77.5754 166.373 76.942 165.951 76.942 165.468C76.942 164.986 77.5754 164.564 78.4037 164.564Z" fill="#BDBDBD"/>
<path fill-rule="evenodd" clip-rule="evenodd" d="M78.4038 148.486C79.2321 148.486 79.8654 148.713 79.8654 148.973C79.8654 149.233 79.2321 149.46 78.4038 149.46C77.5756 149.46 76.9422 149.233 76.9422 148.973C76.9422 148.713 77.5756 148.486 78.4038 148.486Z" fill="#F3F3F3"/>
<path fill-rule="evenodd" clip-rule="evenodd" d="M94.4815 110.484V123.639H91.5583V110.484H94.4815Z" fill="#BDBDBD"/>
<path fill-rule="evenodd" clip-rule="evenodd" d="M93.0199 122.665C93.8481 122.665 94.4815 123.087 94.4815 123.57C94.4815 124.052 93.8481 124.474 93.0199 124.474C92.1916 124.474 91.5583 124.052 91.5583 123.57C91.5583 123.087 92.1916 122.665 93.0199 122.665Z" fill="#BDBDBD"/>
<path fill-rule="evenodd" clip-rule="evenodd" d="M93.0199 109.997C93.8481 109.997 94.4815 110.224 94.4815 110.484C94.4815 110.744 93.8481 110.971 93.0199 110.971C92.1916 110.971 91.5583 110.744 91.5583 110.484C91.5583 110.224 92.1916 109.997 93.0199 109.997Z" fill="#F3F3F3"/>
<path fill-rule="evenodd" clip-rule="evenodd" d="M94.4815 175.282V190.629L91.5583 192.334V175.282H94.4815Z" fill="#BDBDBD"/>
<path fill-rule="evenodd" clip-rule="evenodd" d="M93.0199 174.795C93.8481 174.795 94.4815 175.022 94.4815 175.282C94.4815 175.542 93.8481 175.769 93.0199 175.769C92.1916 175.769 91.5583 175.542 91.5583 175.282C91.5583 175.022 92.1916 174.795 93.0199 174.795Z" fill="#F3F3F3"/>
<path fill-rule="evenodd" clip-rule="evenodd" d="M79.8653 179.667V198.735L76.9421 197.028V179.667H79.8653Z" fill="#BDBDBD"/>
<path fill-rule="evenodd" clip-rule="evenodd" d="M78.4038 179.18C79.232 179.18 79.8654 179.407 79.8654 179.667C79.8654 179.927 79.232 180.154 78.4038 180.154C77.5755 180.154 76.9422 179.927 76.9422 179.667C76.9422 179.407 77.5755 179.18 78.4038 179.18Z" fill="#F3F3F3"/>
<path fill-rule="evenodd" clip-rule="evenodd" d="M72.5573 94.8935V144.101H69.6341V94.8935H72.5573Z" fill="#BDBDBD"/>
<path fill-rule="evenodd" clip-rule="evenodd" d="M71.0958 143.693C71.924 143.693 72.5574 143.902 72.5574 144.141C72.5574 144.379 71.924 144.588 71.0958 144.588C70.2675 144.588 69.6342 144.379 69.6342 144.141C69.6342 143.902 70.2675 143.693 71.0958 143.693Z" fill="#BDBDBD"/>
<path fill-rule="evenodd" clip-rule="evenodd" d="M71.0957 94.4062C71.9239 94.4062 72.5573 94.6336 72.5573 94.8934C72.5573 95.1533 71.9239 95.3806 71.0957 95.3806C70.2674 95.3806 69.6341 95.1533 69.6341 94.8934C69.6341 94.6336 70.2674 94.4062 71.0957 94.4062Z" fill="#F3F3F3"/>
</g>
<g opacity="0.5">
<path fill-rule="evenodd" clip-rule="evenodd" d="M212.11 149.571V185.624H209.187V149.571H212.11Z" fill="#BDBDBD"/>
<path fill-rule="evenodd" clip-rule="evenodd" d="M210.648 184.545C211.476 184.545 212.11 184.968 212.11 185.45C212.11 185.933 211.476 186.355 210.648 186.355C209.82 186.355 209.187 185.933 209.187 185.45C209.187 184.968 209.82 184.545 210.648 184.545Z" fill="#BDBDBD"/>
<path fill-rule="evenodd" clip-rule="evenodd" d="M204.802 150.058V177.829H201.879V150.058H204.802Z" fill="#BDBDBD"/>
<path fill-rule="evenodd" clip-rule="evenodd" d="M203.34 176.855C204.168 176.855 204.802 177.277 204.802 177.76C204.802 178.242 204.168 178.665 203.34 178.665C202.512 178.665 201.879 178.242 201.879 177.76C201.879 177.277 202.512 176.855 203.34 176.855Z" fill="#BDBDBD"/>
<path fill-rule="evenodd" clip-rule="evenodd" d="M203.34 149.571C204.168 149.571 204.802 149.799 204.802 150.058C204.802 150.318 204.168 150.546 203.34 150.546C202.512 150.546 201.879 150.318 201.879 150.058C201.879 149.799 202.512 149.571 203.34 149.571Z" fill="#06AFFF"/>
<path fill-rule="evenodd" clip-rule="evenodd" d="M219.418 141.289V157.854H216.495V141.289H219.418Z" fill="#BDBDBD"/>
<path fill-rule="evenodd" clip-rule="evenodd" d="M217.956 156.879C218.785 156.879 219.418 157.301 219.418 157.784C219.418 158.267 218.785 158.689 217.956 158.689C217.128 158.689 216.495 158.267 216.495 157.784C216.495 157.301 217.128 156.879 217.956 156.879Z" fill="#BDBDBD"/>
<path fill-rule="evenodd" clip-rule="evenodd" d="M124.987 113.427L124.987 105.017C124.987 105.017 205.032 69.0856 205.63 69.4273L285.292 105.826V113.612C285.292 113.612 285.292 114.388 284.515 114.776L206.271 159.899C205.673 160.241 204.733 160.241 204.135 159.899L125.457 114.58C124.859 114.239 124.987 113.427 124.987 113.427Z" fill="#DBDDDE"/>
<path fill-rule="evenodd" clip-rule="evenodd" d="M125.364 104.467L204.217 59.6947C204.815 59.353 205.755 59.353 206.353 59.6947L284.893 105.243C285.491 105.585 285.491 106.14 284.893 106.482L207.036 151.229C206.438 151.571 205.499 151.571 204.901 151.229L125.407 105.705C124.809 105.364 124.766 104.808 125.364 104.467Z" fill="#F3F3F3"/>
<path fill-rule="evenodd" clip-rule="evenodd" d="M172.823 104.195L204.502 85.8549C204.738 85.712 205.116 85.712 205.399 85.8549L237.267 104.338C237.503 104.481 237.503 104.719 237.267 104.862L205.636 123.155C205.399 123.298 205.022 123.298 204.738 123.155L172.823 104.672C172.587 104.529 172.587 104.338 172.823 104.195Z" fill="#DBDDDE"/>
<path fill-rule="evenodd" clip-rule="evenodd" d="M178.652 107.599C178.652 107.599 204.102 92.9172 204.315 92.8119C204.527 92.7065 204.898 92.7065 205.11 92.8119C205.323 92.9172 231.598 107.672 231.598 107.672C231.81 107.777 231.81 107.988 231.598 108.146L205.533 123.262C205.32 123.367 204.86 123.367 204.647 123.262L178.652 108.073C178.44 107.915 178.44 107.704 178.652 107.599Z" fill="#F9F9FE"/>
<path fill-rule="evenodd" clip-rule="evenodd" d="M197.494 169.547V191.023H194.571V169.547H197.494Z" fill="#BDBDBD"/>
<path fill-rule="evenodd" clip-rule="evenodd" d="M196.032 190.576C196.86 190.576 197.494 190.785 197.494 191.023C197.494 191.262 196.86 191.471 196.032 191.471C195.204 191.471 194.57 191.262 194.57 191.023C194.57 190.785 195.204 190.576 196.032 190.576Z" fill="#BDBDBD"/>
<path fill-rule="evenodd" clip-rule="evenodd" d="M196.032 169.059C196.86 169.059 197.494 169.287 197.494 169.547C197.494 169.806 196.86 170.034 196.032 170.034C195.204 170.034 194.57 169.806 194.57 169.547C194.57 169.287 195.204 169.059 196.032 169.059Z" fill="#F3F3F3"/>
<path fill-rule="evenodd" clip-rule="evenodd" d="M212.146 29.4758V102.313H209.223V29.4758H212.146Z" fill="#BDBDBD"/>
<path fill-rule="evenodd" clip-rule="evenodd" d="M210.648 101.477C211.476 101.477 212.11 101.899 212.11 102.382C212.11 102.865 211.476 103.287 210.648 103.287C209.82 103.287 209.187 102.865 209.187 102.382C209.187 101.899 209.82 101.477 210.648 101.477Z" fill="#BDBDBD"/>
<path fill-rule="evenodd" clip-rule="evenodd" d="M219.454 86.2347V92.3944H216.531V86.2347H219.454Z" fill="#BDBDBD"/>
<path fill-rule="evenodd" clip-rule="evenodd" d="M217.992 91.5943C218.82 91.5943 219.454 92.0165 219.454 92.4991C219.454 92.9816 218.82 93.4039 217.992 93.4039C217.164 93.4039 216.531 92.9816 216.531 92.4991C216.531 92.0165 217.164 91.5943 217.992 91.5943Z" fill="#BDBDBD"/>
<path fill-rule="evenodd" clip-rule="evenodd" d="M217.992 75.4053C218.82 75.4053 219.454 75.8275 219.454 76.3101C219.454 76.7926 218.82 77.2149 217.992 77.2149C217.164 77.2149 216.531 76.7926 216.531 76.3101C216.531 75.8275 217.164 75.4053 217.992 75.4053Z" fill="#BDBDBD"/>
<path fill-rule="evenodd" clip-rule="evenodd" d="M217.992 85.7476C218.82 85.7476 219.454 85.975 219.454 86.2348C219.454 86.4946 218.82 86.722 217.992 86.722C217.164 86.722 216.53 86.4946 216.53 86.2348C216.53 85.975 217.164 85.7476 217.992 85.7476Z" fill="#F3F3F3"/>
<path fill-rule="evenodd" clip-rule="evenodd" d="M197.53 0.487274V6.64691H194.606V0.487274H197.53Z" fill="#BDBDBD"/>
<path fill-rule="evenodd" clip-rule="evenodd" d="M196.068 5.84634C196.896 5.84634 197.53 6.26859 197.53 6.75115C197.53 7.23371 196.896 7.65595 196.068 7.65595C195.24 7.65595 194.606 7.23371 194.606 6.75115C194.606 6.26859 195.24 5.84634 196.068 5.84634Z" fill="#BDBDBD"/>
<path fill-rule="evenodd" clip-rule="evenodd" d="M196.068 0C196.896 0 197.53 0.227361 197.53 0.487203C197.53 0.747044 196.896 0.974405 196.068 0.974405C195.24 0.974405 194.606 0.747044 194.606 0.487203C194.606 0.227361 195.24 0 196.068 0Z" fill="#F3F3F3"/>
<path fill-rule="evenodd" clip-rule="evenodd" d="M197.53 157.366V163.526H194.606V157.366H197.53Z" fill="#BDBDBD"/>
<path fill-rule="evenodd" clip-rule="evenodd" d="M196.068 162.726C196.896 162.726 197.53 163.148 197.53 163.63C197.53 164.113 196.896 164.535 196.068 164.535C195.24 164.535 194.606 164.113 194.606 163.63C194.606 163.148 195.24 162.726 196.068 162.726Z" fill="#BDBDBD"/>
<path fill-rule="evenodd" clip-rule="evenodd" d="M219.454 55.0538V76.5305H216.53V55.0538H219.454Z" fill="#BDBDBD"/>
<path fill-rule="evenodd" clip-rule="evenodd" d="M217.992 54.5665C218.82 54.5665 219.454 54.7938 219.454 55.0537C219.454 55.3135 218.82 55.5409 217.992 55.5409C217.164 55.5409 216.53 55.3135 216.53 55.0537C216.53 54.7938 217.164 54.5665 217.992 54.5665Z" fill="#F3F3F3"/>
<path fill-rule="evenodd" clip-rule="evenodd" d="M196.068 156.879C196.896 156.879 197.53 157.106 197.53 157.366C197.53 157.626 196.896 157.853 196.068 157.853C195.24 157.853 194.606 157.626 194.606 157.366C194.606 157.106 195.24 156.879 196.068 156.879Z" fill="#F3F3F3"/>
<path fill-rule="evenodd" clip-rule="evenodd" d="M219.454 164.675V170.834H216.53V164.675H219.454Z" fill="#BDBDBD"/>
<path fill-rule="evenodd" clip-rule="evenodd" d="M217.992 170.034C218.82 170.034 219.454 170.456 219.454 170.938C219.454 171.421 218.82 171.843 217.992 171.843C217.164 171.843 216.53 171.421 216.53 170.938C216.53 170.456 217.164 170.034 217.992 170.034Z" fill="#BDBDBD"/>
<path fill-rule="evenodd" clip-rule="evenodd" d="M217.992 164.187C218.82 164.187 219.454 164.415 219.454 164.675C219.454 164.934 218.82 165.162 217.992 165.162C217.164 165.162 216.53 164.934 216.53 164.675C216.53 164.415 217.164 164.187 217.992 164.187Z" fill="#F3F3F3"/>
<path fill-rule="evenodd" clip-rule="evenodd" d="M219.454 19.9755V26.1351H216.53V19.9755H219.454Z" fill="#BDBDBD"/>
<path fill-rule="evenodd" clip-rule="evenodd" d="M217.992 25.3348C218.82 25.3348 219.454 25.757 219.454 26.2396C219.454 26.7221 218.82 27.1444 217.992 27.1444C217.164 27.1444 216.53 26.7221 216.53 26.2396C216.53 25.757 217.164 25.3348 217.992 25.3348Z" fill="#BDBDBD"/>
<path fill-rule="evenodd" clip-rule="evenodd" d="M217.992 19.4882C218.82 19.4882 219.454 19.7155 219.454 19.9754C219.454 20.2352 218.82 20.4626 217.992 20.4626C217.164 20.4626 216.53 20.2352 216.53 19.9754C216.53 19.7155 217.164 19.4882 217.992 19.4882Z" fill="#F3F3F3"/>
<path fill-rule="evenodd" clip-rule="evenodd" d="M219.454 177.342V188.374C218.312 188.374 217.672 188.374 216.53 188.374V177.342H219.454Z" fill="#BDBDBD"/>
<path fill-rule="evenodd" clip-rule="evenodd" d="M217.992 187.573C218.82 187.573 219.454 187.995 219.454 188.478C219.454 188.961 218.82 189.383 217.992 189.383C217.164 189.383 216.53 188.961 216.53 188.478C216.53 187.995 217.164 187.573 217.992 187.573Z" fill="#BDBDBD"/>
<path fill-rule="evenodd" clip-rule="evenodd" d="M217.992 176.855C218.82 176.855 219.454 177.082 219.454 177.342C219.454 177.602 218.82 177.829 217.992 177.829C217.164 177.829 216.53 177.602 216.53 177.342C216.53 177.082 217.164 176.855 217.992 176.855Z" fill="#F3F3F3"/>
<path fill-rule="evenodd" clip-rule="evenodd" d="M212.146 13.6418V17.3654C211.004 17.3654 210.364 17.3654 209.222 17.3654V13.6418H212.146Z" fill="#BDBDBD"/>
<path fill-rule="evenodd" clip-rule="evenodd" d="M210.684 16.565C211.512 16.565 212.146 16.9872 212.146 17.4698C212.146 17.9523 211.512 18.3746 210.684 18.3746C209.856 18.3746 209.222 17.9523 209.222 17.4698C209.222 16.9872 209.856 16.565 210.684 16.565Z" fill="#BDBDBD"/>
<path fill-rule="evenodd" clip-rule="evenodd" d="M210.684 13.1545C211.512 13.1545 212.146 13.3818 212.146 13.6417C212.146 13.9015 211.512 14.1289 210.684 14.1289C209.856 14.1289 209.222 13.9015 209.222 13.6417C209.222 13.3818 209.856 13.1545 210.684 13.1545Z" fill="#F3F3F3"/>
<path fill-rule="evenodd" clip-rule="evenodd" d="M212.146 108.646V114.806H209.222V108.646H212.146Z" fill="#BDBDBD"/>
<path fill-rule="evenodd" clip-rule="evenodd" d="M210.684 114.006C211.512 114.006 212.146 114.428 212.146 114.91C212.146 115.393 211.512 115.815 210.684 115.815C209.856 115.815 209.222 115.393 209.222 114.91C209.222 114.428 209.856 114.006 210.684 114.006Z" fill="#BDBDBD"/>
<path fill-rule="evenodd" clip-rule="evenodd" d="M210.684 108.159C211.512 108.159 212.146 108.386 212.146 108.646C212.146 108.906 211.512 109.133 210.684 109.133C209.856 109.133 209.222 108.906 209.222 108.646C209.222 108.386 209.856 108.159 210.684 108.159Z" fill="#F3F3F3"/>
<path fill-rule="evenodd" clip-rule="evenodd" d="M210.684 28.9886C211.512 28.9886 212.146 29.216 212.146 29.4758C212.146 29.7356 211.512 29.963 210.684 29.963C209.856 29.963 209.222 29.7356 209.222 29.4758C209.222 29.216 209.856 28.9886 210.684 28.9886Z" fill="#F3F3F3"/>
<path fill-rule="evenodd" clip-rule="evenodd" d="M204.802 4.38512V62.8494H201.879V4.38512H204.802Z" fill="#BDBDBD"/>
<path fill-rule="evenodd" clip-rule="evenodd" d="M203.34 62.0141C204.168 62.0141 204.802 62.4364 204.802 62.9189C204.802 63.4015 204.168 63.8237 203.34 63.8237C202.512 63.8237 201.879 63.4015 201.879 62.9189C201.879 62.4364 202.512 62.0141 203.34 62.0141Z" fill="#BDBDBD"/>
<path fill-rule="evenodd" clip-rule="evenodd" d="M203.34 3.89781C204.168 3.89781 204.802 4.12517 204.802 4.38501C204.802 4.64486 204.168 4.87222 203.34 4.87222C202.512 4.87222 201.879 4.64486 201.879 4.38501C201.879 4.12517 202.512 3.89781 203.34 3.89781Z" fill="#F3F3F3"/>
<path fill-rule="evenodd" clip-rule="evenodd" d="M197.494 85.2608V113.031H194.571V85.2608H197.494Z" fill="#BDBDBD"/>
<path fill-rule="evenodd" clip-rule="evenodd" d="M196.032 112.057C196.86 112.057 197.494 112.479 197.494 112.962C197.494 113.444 196.86 113.866 196.032 113.866C195.204 113.866 194.571 113.444 194.571 112.962C194.571 112.479 195.204 112.057 196.032 112.057Z" fill="#BDBDBD"/>
<path fill-rule="evenodd" clip-rule="evenodd" d="M196.032 84.7735C196.86 84.7735 197.494 85.0008 197.494 85.2607C197.494 85.5205 196.86 85.7479 196.032 85.7479C195.204 85.7479 194.571 85.5205 194.571 85.2607C194.571 85.0008 195.204 84.7735 196.032 84.7735Z" fill="#F3F3F3"/>
<path fill-rule="evenodd" clip-rule="evenodd" d="M204.802 73.568V90.1328H201.879V73.568H204.802Z" fill="#BDBDBD"/>
<path fill-rule="evenodd" clip-rule="evenodd" d="M203.34 89.1583C204.168 89.1583 204.802 89.5806 204.802 90.0631C204.802 90.5457 204.168 90.9679 203.34 90.9679C202.512 90.9679 201.879 90.5457 201.879 90.0631C201.879 89.5806 202.512 89.1583 203.34 89.1583Z" fill="#BDBDBD"/>
<path fill-rule="evenodd" clip-rule="evenodd" d="M203.34 73.0805C204.168 73.0805 204.802 73.3078 204.802 73.5677C204.802 73.8275 204.168 74.0549 203.34 74.0549C202.512 74.0549 201.879 73.8275 201.879 73.5677C201.879 73.3078 202.512 73.0805 203.34 73.0805Z" fill="#F3F3F3"/>
<path fill-rule="evenodd" clip-rule="evenodd" d="M219.418 35.0788V48.2333H216.495V35.0788H219.418Z" fill="#BDBDBD"/>
<path fill-rule="evenodd" clip-rule="evenodd" d="M217.956 47.2591C218.785 47.2591 219.418 47.6814 219.418 48.1639C219.418 48.6465 218.785 49.0687 217.956 49.0687C217.128 49.0687 216.495 48.6465 216.495 48.1639C216.495 47.6814 217.128 47.2591 217.956 47.2591Z" fill="#BDBDBD"/>
<path fill-rule="evenodd" clip-rule="evenodd" d="M217.956 34.5915C218.785 34.5915 219.418 34.8189 219.418 35.0787C219.418 35.3386 218.785 35.5659 217.956 35.5659C217.128 35.5659 216.495 35.3386 216.495 35.0787C216.495 34.8189 217.128 34.5915 217.956 34.5915Z" fill="#F3F3F3"/>
<path fill-rule="evenodd" clip-rule="evenodd" d="M219.418 99.8768V115.224L216.495 116.929V99.8768H219.418Z" fill="#BDBDBD"/>
<path fill-rule="evenodd" clip-rule="evenodd" d="M217.956 99.3894C218.785 99.3894 219.418 99.6168 219.418 99.8766C219.418 100.136 218.785 100.364 217.956 100.364C217.128 100.364 216.495 100.136 216.495 99.8766C216.495 99.6168 217.128 99.3894 217.956 99.3894Z" fill="#F3F3F3"/>
<path fill-rule="evenodd" clip-rule="evenodd" d="M204.802 104.262V123.33L201.879 121.622V104.262H204.802Z" fill="#BDBDBD"/>
<path fill-rule="evenodd" clip-rule="evenodd" d="M203.34 103.774C204.168 103.774 204.802 104.002 204.802 104.261C204.802 104.521 204.168 104.749 203.34 104.749C202.512 104.749 201.879 104.521 201.879 104.261C201.879 104.002 202.512 103.774 203.34 103.774Z" fill="#F3F3F3"/>
<path fill-rule="evenodd" clip-rule="evenodd" d="M197.494 19.4883V68.6957H194.571V19.4883H197.494Z" fill="#BDBDBD"/>
<path fill-rule="evenodd" clip-rule="evenodd" d="M196.032 68.2878C196.86 68.2878 197.494 68.4966 197.494 68.7352C197.494 68.9738 196.86 69.1826 196.032 69.1826C195.204 69.1826 194.57 68.9738 194.57 68.7352C194.57 68.4966 195.204 68.2878 196.032 68.2878Z" fill="#BDBDBD"/>
<path fill-rule="evenodd" clip-rule="evenodd" d="M196.032 19.0009C196.86 19.0009 197.494 19.2282 197.494 19.4881C197.494 19.7479 196.86 19.9753 196.032 19.9753C195.204 19.9753 194.57 19.7479 194.57 19.4881C194.57 19.2282 195.204 19.0009 196.032 19.0009Z" fill="#F3F3F3"/>
</g>
<path fill-rule="evenodd" clip-rule="evenodd" d="M237.251 334.889V389.595H232.815V334.889H237.251Z" fill="#FFD215"/>
<path fill-rule="evenodd" clip-rule="evenodd" d="M235.033 387.958C236.29 387.958 237.251 388.598 237.251 389.331C237.251 390.063 236.29 390.704 235.033 390.704C233.776 390.704 232.815 390.063 232.815 389.331C232.815 388.598 233.776 387.958 235.033 387.958Z" fill="#FFD215"/>
<path fill-rule="evenodd" clip-rule="evenodd" d="M226.162 335.628V377.766H221.726V335.628H226.162Z" fill="#3C8AFE"/>
<path fill-rule="evenodd" clip-rule="evenodd" d="M223.944 376.288C225.201 376.288 226.162 376.929 226.162 377.661C226.162 378.393 225.201 379.034 223.944 379.034C222.687 379.034 221.726 378.393 221.726 377.661C221.726 376.929 222.687 376.288 223.944 376.288Z" fill="#3C8AFE"/>
<path fill-rule="evenodd" clip-rule="evenodd" d="M223.944 334.889C225.201 334.889 226.162 335.234 226.162 335.628C226.162 336.022 225.201 336.367 223.944 336.367C222.687 336.367 221.726 336.022 221.726 335.628C221.726 335.234 222.687 334.889 223.944 334.889Z" fill="#06AFFF"/>
<path fill-rule="evenodd" clip-rule="evenodd" d="M248.34 322.321V347.456H243.904V322.321H248.34Z" fill="#17CE8A"/>
<path fill-rule="evenodd" clip-rule="evenodd" d="M246.122 345.978C247.379 345.978 248.34 346.619 248.34 347.351C248.34 348.083 247.379 348.724 246.122 348.724C244.865 348.724 243.904 348.083 243.904 347.351C243.904 346.619 244.865 345.978 246.122 345.978Z" fill="#17CE8A"/>
<path fill-rule="evenodd" clip-rule="evenodd" d="M105.054 280.045L105.054 267.283C105.054 267.283 226.511 212.762 227.419 213.281L348.295 268.511V280.325C348.295 280.325 348.295 281.503 347.117 282.092L228.391 350.56C227.484 351.079 226.058 351.079 225.15 350.56L105.766 281.795C104.859 281.276 105.054 280.045 105.054 280.045Z" fill="#DBDDDE"/>
<path fill-rule="evenodd" clip-rule="evenodd" d="M105.625 266.449L225.275 198.513C226.182 197.994 227.608 197.994 228.515 198.513L347.691 267.627C348.598 268.145 348.598 268.988 347.691 269.506L229.552 337.405C228.645 337.924 227.219 337.924 226.312 337.405L105.69 268.328C104.783 267.81 104.718 266.967 105.625 266.449Z" fill="#F3F3F3"/>
<path fill-rule="evenodd" clip-rule="evenodd" d="M177.639 266.037L225.708 238.207C226.066 237.99 226.639 237.99 227.069 238.207L275.424 266.253C275.782 266.47 275.782 266.832 275.424 267.048L227.427 294.806C227.069 295.022 226.496 295.022 226.066 294.806L177.639 266.759C177.281 266.543 177.281 266.253 177.639 266.037Z" fill="#DBDDDE"/>
<path fill-rule="evenodd" clip-rule="evenodd" d="M186.483 271.202C186.483 271.202 225.1 248.924 225.422 248.764C225.744 248.604 226.308 248.604 226.63 248.764C226.952 248.924 266.821 271.312 266.821 271.312C267.143 271.472 267.143 271.792 266.821 272.031L227.271 294.968C226.949 295.128 226.25 295.128 225.928 294.968L186.483 271.921C186.161 271.681 186.161 271.362 186.483 271.202Z" fill="#F9F9FE"/>
<path fill-rule="evenodd" clip-rule="evenodd" d="M215.073 365.199V397.787H210.637V365.199H215.073Z" fill="#F32626"/>
<path fill-rule="evenodd" clip-rule="evenodd" d="M212.855 397.108C214.112 397.108 215.073 397.425 215.073 397.787C215.073 398.149 214.112 398.466 212.855 398.466C211.598 398.466 210.637 398.149 210.637 397.787C210.637 397.425 211.598 397.108 212.855 397.108Z" fill="#F32626"/>
<path fill-rule="evenodd" clip-rule="evenodd" d="M212.855 364.46C214.112 364.46 215.073 364.805 215.073 365.199C215.073 365.593 214.112 365.938 212.855 365.938C211.598 365.938 210.637 365.593 210.637 365.199C210.637 364.805 211.598 364.46 212.855 364.46Z" fill="#F67C7C"/>
<path fill-rule="evenodd" clip-rule="evenodd" d="M237.305 152.659V263.18H232.87V152.659H237.305Z" fill="#FFD215"/>
<path fill-rule="evenodd" clip-rule="evenodd" d="M235.033 261.912C236.29 261.912 237.251 262.553 237.251 263.285C237.251 264.018 236.29 264.658 235.033 264.658C233.776 264.658 232.815 264.018 232.815 263.285C232.815 262.553 233.776 261.912 235.033 261.912Z" fill="#FFD215"/>
<path fill-rule="evenodd" clip-rule="evenodd" d="M248.394 238.784V248.13H243.959V238.784H248.394Z" fill="#FFD215"/>
<path fill-rule="evenodd" clip-rule="evenodd" d="M246.177 246.916C247.433 246.916 248.394 247.557 248.394 248.289C248.394 249.021 247.433 249.662 246.177 249.662C244.92 249.662 243.959 249.021 243.959 248.289C243.959 247.557 244.92 246.916 246.177 246.916Z" fill="#FFD215"/>
<path fill-rule="evenodd" clip-rule="evenodd" d="M246.177 238.045C247.433 238.045 248.394 238.39 248.394 238.784C248.394 239.178 247.433 239.523 246.177 239.523C244.92 239.523 243.959 239.178 243.959 238.784C243.959 238.39 244.92 238.045 246.177 238.045Z" fill="#FFEE50"/>
<path fill-rule="evenodd" clip-rule="evenodd" d="M215.127 108.672V118.019H210.692V108.672H215.127Z" fill="#FFD215"/>
<path fill-rule="evenodd" clip-rule="evenodd" d="M212.909 116.804C214.166 116.804 215.127 117.445 215.127 118.177C215.127 118.91 214.166 119.55 212.909 119.55C211.653 119.55 210.692 118.91 210.692 118.177C210.692 117.445 211.653 116.804 212.909 116.804Z" fill="#FFD215"/>
<path fill-rule="evenodd" clip-rule="evenodd" d="M212.909 107.933C214.166 107.933 215.127 108.278 215.127 108.673C215.127 109.067 214.166 109.412 212.909 109.412C211.653 109.412 210.692 109.067 210.692 108.673C210.692 108.278 211.653 107.933 212.909 107.933Z" fill="#FFEE50"/>
<path fill-rule="evenodd" clip-rule="evenodd" d="M215.127 356.064V346.717H210.692V356.064H210.707C210.697 356.116 210.692 356.169 210.692 356.222C210.692 356.954 211.653 357.595 212.909 357.595C214.166 357.595 215.127 356.954 215.127 356.222C215.127 356.169 215.122 356.116 215.112 356.064H215.127Z" fill="#17CE8A"/>
<path fill-rule="evenodd" clip-rule="evenodd" d="M248.394 191.471V224.059H243.959V191.471H248.394Z" fill="#F32626"/>
<path fill-rule="evenodd" clip-rule="evenodd" d="M246.176 190.731C247.433 190.731 248.394 191.076 248.394 191.471C248.394 191.865 247.433 192.21 246.176 192.21C244.92 192.21 243.959 191.865 243.959 191.471C243.959 191.076 244.92 190.731 246.176 190.731Z" fill="#F67C7C"/>
<path fill-rule="evenodd" clip-rule="evenodd" d="M212.909 345.978C214.166 345.978 215.127 346.323 215.127 346.717C215.127 347.112 214.166 347.457 212.909 347.457C211.653 347.457 210.692 347.112 210.692 346.717C210.692 346.323 211.653 345.978 212.909 345.978Z" fill="#42E7AA"/>
<path fill-rule="evenodd" clip-rule="evenodd" d="M248.394 357.806V367.153H243.959V357.806H248.394Z" fill="#2F80ED"/>
<path fill-rule="evenodd" clip-rule="evenodd" d="M246.176 365.938C247.433 365.938 248.394 366.579 248.394 367.311C248.394 368.044 247.433 368.684 246.176 368.684C244.92 368.684 243.959 368.044 243.959 367.311C243.959 366.579 244.92 365.938 246.176 365.938Z" fill="#2F80ED"/>
<path fill-rule="evenodd" clip-rule="evenodd" d="M246.176 357.067C247.433 357.067 248.394 357.412 248.394 357.806C248.394 358.201 247.433 358.546 246.176 358.546C244.92 358.546 243.959 358.201 243.959 357.806C243.959 357.412 244.92 357.067 246.176 357.067Z" fill="#47D2FF"/>
<path fill-rule="evenodd" clip-rule="evenodd" d="M248.394 138.243V147.59H243.959V138.243H248.394Z" fill="#2F80ED"/>
<path fill-rule="evenodd" clip-rule="evenodd" d="M246.176 146.375C247.433 146.375 248.394 147.016 248.394 147.748C248.394 148.48 247.433 149.121 246.176 149.121C244.92 149.121 243.959 148.48 243.959 147.748C243.959 147.016 244.92 146.375 246.176 146.375Z" fill="#2F80ED"/>
<path fill-rule="evenodd" clip-rule="evenodd" d="M246.176 137.504C247.433 137.504 248.394 137.849 248.394 138.243C248.394 138.638 247.433 138.983 246.176 138.983C244.92 138.983 243.959 138.638 243.959 138.243C243.959 137.849 244.92 137.504 246.176 137.504Z" fill="#47D2FF"/>
<path fill-rule="evenodd" clip-rule="evenodd" d="M248.394 377.027V393.766C246.662 393.766 245.691 393.766 243.959 393.766V377.027H248.394Z" fill="#FF5256"/>
<path fill-rule="evenodd" clip-rule="evenodd" d="M246.176 392.552C247.433 392.552 248.394 393.193 248.394 393.925C248.394 394.657 247.433 395.298 246.176 395.298C244.92 395.298 243.959 394.657 243.959 393.925C243.959 393.193 244.92 392.552 246.176 392.552Z" fill="#FF5256"/>
<path fill-rule="evenodd" clip-rule="evenodd" d="M246.176 376.288C247.433 376.288 248.394 376.633 248.394 377.027C248.394 377.421 247.433 377.766 246.176 377.766C244.92 377.766 243.959 377.421 243.959 377.027C243.959 376.633 244.92 376.288 246.176 376.288Z" fill="#F67C7C"/>
<path fill-rule="evenodd" clip-rule="evenodd" d="M237.305 128.633V134.283C235.573 134.283 234.602 134.283 232.87 134.283V128.633H237.305Z" fill="#FF5256"/>
<path fill-rule="evenodd" clip-rule="evenodd" d="M235.087 133.068C236.344 133.068 237.305 133.709 237.305 134.441C237.305 135.174 236.344 135.814 235.087 135.814C233.831 135.814 232.87 135.174 232.87 134.441C232.87 133.709 233.831 133.068 235.087 133.068Z" fill="#FF5256"/>
<path fill-rule="evenodd" clip-rule="evenodd" d="M235.087 127.894C236.344 127.894 237.305 128.239 237.305 128.633C237.305 129.027 236.344 129.372 235.087 129.372C233.831 129.372 232.87 129.027 232.87 128.633C232.87 128.239 233.831 127.894 235.087 127.894Z" fill="#F67C7C"/>
<path fill-rule="evenodd" clip-rule="evenodd" d="M237.305 272.79V282.137H232.87V272.79H237.305Z" fill="#2F80ED"/>
<path fill-rule="evenodd" clip-rule="evenodd" d="M235.087 280.922C236.344 280.922 237.305 281.563 237.305 282.295C237.305 283.027 236.344 283.668 235.087 283.668C233.831 283.668 232.87 283.027 232.87 282.295C232.87 281.563 233.831 280.922 235.087 280.922Z" fill="#2F80ED"/>
<path fill-rule="evenodd" clip-rule="evenodd" d="M235.087 272.051C236.344 272.051 237.305 272.396 237.305 272.79C237.305 273.185 236.344 273.53 235.087 273.53C233.831 273.53 232.87 273.185 232.87 272.79C232.87 272.396 233.831 272.051 235.087 272.051Z" fill="#47D2FF"/>
<path fill-rule="evenodd" clip-rule="evenodd" d="M235.087 151.92C236.344 151.92 237.305 152.265 237.305 152.659C237.305 153.053 236.344 153.398 235.087 153.398C233.831 153.398 232.87 153.053 232.87 152.659C232.87 152.265 233.831 151.92 235.087 151.92Z" fill="#FFEE50"/>
<path fill-rule="evenodd" clip-rule="evenodd" d="M226.162 114.587V203.299H221.726V114.587H226.162Z" fill="#3C8AFE"/>
<path fill-rule="evenodd" clip-rule="evenodd" d="M223.944 202.031C225.201 202.031 226.162 202.672 226.162 203.404C226.162 204.137 225.201 204.777 223.944 204.777C222.687 204.777 221.726 204.137 221.726 203.404C221.726 202.672 222.687 202.031 223.944 202.031Z" fill="#3C8AFE"/>
<path fill-rule="evenodd" clip-rule="evenodd" d="M223.944 113.847C225.201 113.847 226.162 114.192 226.162 114.587C226.162 114.981 225.201 115.326 223.944 115.326C222.687 115.326 221.726 114.981 221.726 114.587C221.726 114.192 222.687 113.847 223.944 113.847Z" fill="#06AFFF"/>
<path fill-rule="evenodd" clip-rule="evenodd" d="M215.073 237.305V279.444H210.637V237.305H215.073Z" fill="#3C8AFE"/>
<path fill-rule="evenodd" clip-rule="evenodd" d="M212.855 277.965C214.112 277.965 215.073 278.606 215.073 279.338C215.073 280.07 214.112 280.711 212.855 280.711C211.598 280.711 210.637 280.07 210.637 279.338C210.637 278.606 211.598 277.965 212.855 277.965Z" fill="#3C8AFE"/>
<path fill-rule="evenodd" clip-rule="evenodd" d="M212.855 236.566C214.112 236.566 215.073 236.911 215.073 237.305C215.073 237.699 214.112 238.044 212.855 238.044C211.598 238.044 210.637 237.699 210.637 237.305C210.637 236.911 211.598 236.566 212.855 236.566Z" fill="#06AFFF"/>
<path fill-rule="evenodd" clip-rule="evenodd" d="M226.162 219.563V244.698H221.726V219.563H226.162Z" fill="#17CE8A"/>
<path fill-rule="evenodd" clip-rule="evenodd" d="M223.944 243.22C225.201 243.22 226.162 243.86 226.162 244.592C226.162 245.325 225.201 245.965 223.944 245.965C222.687 245.965 221.726 245.325 221.726 244.592C221.726 243.86 222.687 243.22 223.944 243.22Z" fill="#17CE8A"/>
<path fill-rule="evenodd" clip-rule="evenodd" d="M223.944 218.824C225.201 218.824 226.162 219.169 226.162 219.563C226.162 219.957 225.201 220.302 223.944 220.302C222.687 220.302 221.726 219.957 221.726 219.563C221.726 219.169 222.687 218.824 223.944 218.824Z" fill="#42E7AA"/>
<path fill-rule="evenodd" clip-rule="evenodd" d="M248.34 161.161V181.121H243.904V161.161H248.34Z" fill="#17CE8A"/>
<path fill-rule="evenodd" clip-rule="evenodd" d="M246.122 179.642C247.379 179.642 248.34 180.283 248.34 181.015C248.34 181.747 247.379 182.388 246.122 182.388C244.865 182.388 243.904 181.747 243.904 181.015C243.904 180.283 244.865 179.642 246.122 179.642Z" fill="#17CE8A"/>
<path fill-rule="evenodd" clip-rule="evenodd" d="M246.122 160.421C247.379 160.421 248.34 160.766 248.34 161.161C248.34 161.555 247.379 161.9 246.122 161.9C244.865 161.9 243.904 161.555 243.904 161.161C243.904 160.766 244.865 160.421 246.122 160.421Z" fill="#42E7AA"/>
<path fill-rule="evenodd" clip-rule="evenodd" d="M248.34 259.483V282.77L243.904 285.358V259.483H248.34Z" fill="#17CE8A"/>
<path fill-rule="evenodd" clip-rule="evenodd" d="M246.122 258.744C247.379 258.744 248.34 259.089 248.34 259.483C248.34 259.878 247.379 260.223 246.122 260.223C244.865 260.223 243.904 259.878 243.904 259.483C243.904 259.089 244.865 258.744 246.122 258.744Z" fill="#42E7AA"/>
<path fill-rule="evenodd" clip-rule="evenodd" d="M226.162 266.137V295.07L221.726 292.48V266.137H226.162Z" fill="#F32626"/>
<path fill-rule="evenodd" clip-rule="evenodd" d="M223.944 265.398C225.201 265.398 226.162 265.743 226.162 266.137C226.162 266.531 225.201 266.876 223.944 266.876C222.687 266.876 221.726 266.531 221.726 266.137C221.726 265.743 222.687 265.398 223.944 265.398Z" fill="#F67C7C"/>
<path fill-rule="evenodd" clip-rule="evenodd" d="M215.073 137.504V212.17H210.637V137.504H215.073Z" fill="#F32626"/>
<path fill-rule="evenodd" clip-rule="evenodd" d="M212.855 211.551C214.112 211.551 215.073 211.868 215.073 212.23C215.073 212.592 214.112 212.909 212.855 212.909C211.598 212.909 210.637 212.592 210.637 212.23C210.637 211.868 211.598 211.551 212.855 211.551Z" fill="#F32626"/>
<path fill-rule="evenodd" clip-rule="evenodd" d="M212.855 136.765C214.112 136.765 215.073 137.11 215.073 137.504C215.073 137.898 214.112 138.243 212.855 138.243C211.598 138.243 210.637 137.898 210.637 137.504C210.637 137.11 211.598 136.765 212.855 136.765Z" fill="#F67C7C"/>
</svg>
